<?xml version="1.0" standalone="no"?><!DOCTYPE svg PUBLIC "-//W3C//DTD SVG 1.1//EN" "http://www.w3.org/Graphics/SVG/1.1/DTD/svg11.dtd"><svg t="1689808087247" class="icon" viewBox="0 0 1024 1024" version="1.1" xmlns="http://www.w3.org/2000/svg" p-id="3668" xmlns:xlink="http://www.w3.org/1999/xlink" width="200" height="200"><path d="M949.013333 384l32.064-228.202667-845.013333-118.762666L87.296 384h86.186667l35.2-250.581333 676.032 95.018666L862.848 384h86.165333z m-35.968 256l-44.8 318.570667-845.013333-118.762667L51.306667 640h86.186666l-17.877333 127.189333 676.010667 95.018667L826.88 640h86.186667zM21.333333 469.333333h128v85.333334H21.333333v-85.333334z m213.333334 0h128v85.333334h-128v-85.333334z m640 0h128v85.333334h-128v-85.333334z m-213.333334 0h128v85.333334h-128v-85.333334z m-213.333333 0h128v85.333334h-128v-85.333334z" fill="#ffffff" p-id="3669"></path></svg>