<?xml version="1.0" standalone="no"?><!DOCTYPE svg PUBLIC "-//W3C//DTD SVG 1.1//EN" "http://www.w3.org/Graphics/SVG/1.1/DTD/svg11.dtd"><svg t="1689854828252" class="icon" viewBox="0 0 1024 1024" version="1.1" xmlns="http://www.w3.org/2000/svg" p-id="5110" xmlns:xlink="http://www.w3.org/1999/xlink" width="200" height="200"><path d="M490.666667 490.666667v128h-85.333334v-128h-128v-85.333334h128v-128h85.333334v128h128v85.333334h-128z m266.624 184.96l233.322666 233.322666-60.330666 60.330667L699.306667 738.325333A382.506667 382.506667 0 0 1 448 832c-212.074667 0-384-171.925333-384-384S235.925333 64 448 64s384 171.925333 384 384c0 85.205333-27.733333 163.925333-74.709333 227.626667zM746.666667 448c0-164.949333-133.717333-298.666667-298.666667-298.666667S149.333333 283.050667 149.333333 448s133.717333 298.666667 298.666667 298.666667 298.666667-133.717333 298.666667-298.666667z" fill="#ffffff" p-id="5111"></path></svg>